<?xml version="1.0" encoding="UTF-8"?>
<!DOCTYPE svg PUBLIC "-//W3C//DTD SVG 1.1//EN" "http://www.w3.org/Graphics/SVG/1.1/DTD/svg11.dtd">
<svg xmlns="http://www.w3.org/2000/svg" version="1.1" width="854px" height="378px" viewBox="217 444 854 378" preserveAspectRatio="xMidYMid meet"
    style="shape-rendering:geometricPrecision; text-rendering:geometricPrecision; image-rendering:optimizeQuality; fill-rule:evenodd; clip-rule:evenodd"
    xmlns:xlink="http://www.w3.org/1999/xlink">
    <g id="deck-icon">
        <path fill="#F2F2F2"
            d="M 312.5,461.5 C 373.539,463.763 419.039,491.43 449,544.5C 475.648,600.403 473.314,655.069 442,708.5C 411.013,754.246 367.846,777.913 312.5,779.5C 312.333,760.497 312.5,741.497 313,722.5C 361.661,715.155 391.661,687.488 403,639.5C 408.643,596.312 394.143,561.812 359.5,536C 344.981,527.105 329.315,521.938 312.5,520.5C 312.5,500.833 312.5,481.167 312.5,461.5 Z" />
        <path fill="#0080ff"
            d="M 309.5,545.5 C 309.5,545.833 309.5,546.167 309.5,546.5C 302.471,546.377 295.471,546.71 288.5,547.5C 289.609,546.71 290.942,546.21 292.5,546C 298.157,545.501 303.824,545.334 309.5,545.5 Z" />
        <path fill="#000000"
            d="M 309.5,546.5 C 309.5,546.167 309.5,545.833 309.5,545.5C 317.173,544.736 324.507,545.903 331.5,549C 332.252,549.671 332.586,550.504 332.5,551.5C 325.159,548.442 317.493,546.775 309.5,546.5 Z" />
        <path fill="#0080ff"
            d="M 309.5,546.5 C 317.493,546.775 325.159,548.442 332.5,551.5C 334.96,552.891 337.626,554.058 340.5,555C 346.664,559.667 352.664,564.5 358.5,569.5C 361.585,573.246 364.251,577.246 366.5,581.5C 363.234,581.567 361.734,579.901 362,576.5C 360.641,575.635 359.474,574.635 358.5,573.5C 354.173,568.486 349.173,564.153 343.5,560.5C 338.7,557.911 334.033,555.078 329.5,552C 327.134,551.56 324.801,551.06 322.5,550.5C 309.545,546.309 296.878,546.809 284.5,552C 280.241,553.295 275.908,554.295 271.5,555C 271.167,555.333 270.833,555.667 270.5,556C 273.084,557.994 272.918,558.494 270,557.5C 267.865,558.127 265.698,558.627 263.5,559C 261.963,560.11 261.297,561.61 261.5,563.5C 259.5,563.833 257.5,564.167 255.5,564.5C 255.719,565.675 255.386,566.675 254.5,567.5C 248.141,570.677 244.308,575.677 243,582.5C 238.676,588.483 235.009,594.817 232,601.5C 232.045,605.335 232.545,609.168 233.5,613C 233.359,616.552 232.859,620.052 232,623.5C 231.586,623.043 231.086,622.709 230.5,622.5C 230.167,624.333 229.833,626.167 229.5,628C 229.89,631.835 230.223,635.668 230.5,639.5C 229.252,636.058 228.419,632.392 228,628.5C 227.5,621.508 227.334,614.508 227.5,607.5C 230.744,596.897 235.411,586.897 241.5,577.5C 253.251,561.425 268.918,551.425 288.5,547.5C 295.471,546.71 302.471,546.377 309.5,546.5 Z" />
        <path fill="#0080ff"
            d="M 322.5,550.5 C 322.215,552.288 322.548,553.955 323.5,555.5C 325.911,556.454 328.077,557.788 330,559.5C 330.772,559.355 331.439,559.022 332,558.5C 333.912,559.692 335.912,560.692 338,561.5C 338.783,563.433 338.283,564.933 336.5,566C 336.833,566.333 337.167,566.667 337.5,567C 336.552,567.483 335.552,567.649 334.5,567.5C 333.833,571.5 335.5,573.167 339.5,572.5C 339.5,573.833 339.5,575.167 339.5,576.5C 337.738,576.643 336.071,576.309 334.5,575.5C 333.52,578.086 333.187,580.753 333.5,583.5C 328.833,583.5 324.167,583.5 319.5,583.5C 319.5,586.167 319.5,588.833 319.5,591.5C 324.833,591.5 330.167,591.5 335.5,591.5C 335.5,588.833 335.5,586.167 335.5,583.5C 338.167,583.5 340.833,583.5 343.5,583.5C 343.5,588.833 343.5,594.167 343.5,599.5C 348.833,599.5 354.167,599.5 359.5,599.5C 359.5,600.5 359.5,601.5 359.5,602.5C 363.073,602.041 366.073,603.041 368.5,605.5C 372.953,601.779 373.62,597.446 370.5,592.5C 369.522,592.977 368.689,593.643 368,594.5C 368.333,592.5 368.667,590.5 369,588.5C 367.916,587.335 367.083,586.002 366.5,584.5C 362.732,583.066 360.398,580.4 359.5,576.5C 357.717,577.348 357.217,578.681 358,580.5C 358.333,580.167 358.667,579.833 359,579.5C 360.528,584.058 362.695,588.225 365.5,592C 361.688,593.207 358.688,592.207 356.5,589C 358.901,588.195 358.734,587.362 356,586.5C 354.76,582.161 352.927,578.161 350.5,574.5C 347.008,573.465 343.675,572.132 340.5,570.5C 341.892,569.935 343.559,568.935 345.5,567.5C 347.323,568.747 349.323,569.414 351.5,569.5C 352.095,572.425 353.761,574.425 356.5,575.5C 357.713,575.253 358.38,574.586 358.5,573.5C 359.474,574.635 360.641,575.635 362,576.5C 361.734,579.901 363.234,581.567 366.5,581.5C 366.833,581.5 367.167,581.5 367.5,581.5C 368.332,585.309 369.999,588.643 372.5,591.5C 378.203,604.447 379.87,617.78 377.5,631.5C 376.529,641.709 373.196,651.042 367.5,659.5C 366.504,659.586 365.671,659.252 365,658.5C 364.5,660 364,661.5 363.5,663C 360.177,665.459 357.677,668.626 356,672.5C 353.401,675.545 350.234,677.712 346.5,679C 344.251,681.744 341.917,684.244 339.5,686.5C 337.574,688.293 335.241,689.293 332.5,689.5C 326.864,690.827 321.198,692.327 315.5,694C 306.173,694.5 296.839,694.666 287.5,694.5C 285.751,693.015 283.751,692.015 281.5,691.5C 290.132,690.171 298.799,689.004 307.5,688C 306.207,687.51 304.873,687.343 303.5,687.5C 303.5,685.5 303.5,683.5 303.5,681.5C 298.167,680.833 292.833,680.167 287.5,679.5C 287.5,681.833 287.5,684.167 287.5,686.5C 284.167,686.5 280.833,686.5 277.5,686.5C 277.5,684.167 277.5,681.833 277.5,679.5C 275.833,679.5 274.167,679.5 272.5,679.5C 272.756,677.208 272.423,675.041 271.5,673C 266.614,670.413 261.447,668.579 256,667.5C 255.924,663.181 256.091,658.848 256.5,654.5C 255.167,654.5 253.833,654.5 252.5,654.5C 253.004,658.507 253.17,662.507 253,666.5C 251.513,667.155 250.347,668.155 249.5,669.5C 250.763,671.029 251.763,672.695 252.5,674.5C 251.833,674.5 251.167,674.5 250.5,674.5C 247.772,670.724 245.272,666.724 243,662.5C 242.667,662.833 242.333,663.167 242,663.5C 241.037,660.383 239.204,658.049 236.5,656.5C 236.5,655.833 236.167,655.5 235.5,655.5C 233.218,650.376 231.551,645.042 230.5,639.5C 230.223,635.668 229.89,631.835 229.5,628C 229.833,626.167 230.167,624.333 230.5,622.5C 231.086,622.709 231.586,623.043 232,623.5C 232.859,620.052 233.359,616.552 233.5,613C 232.545,609.168 232.045,605.335 232,601.5C 235.009,594.817 238.676,588.483 243,582.5C 244.308,575.677 248.141,570.677 254.5,567.5C 255.386,566.675 255.719,565.675 255.5,564.5C 257.5,564.167 259.5,563.833 261.5,563.5C 261.297,561.61 261.963,560.11 263.5,559C 265.698,558.627 267.865,558.127 270,557.5C 272.918,558.494 273.084,557.994 270.5,556C 270.833,555.667 271.167,555.333 271.5,555C 275.908,554.295 280.241,553.295 284.5,552C 296.878,546.809 309.545,546.309 322.5,550.5 Z" />
        <path fill="#000000"
            d="M 332.5,551.5 C 335.106,552.136 337.606,552.136 340,551.5C 344.533,556.012 349.7,559.846 355.5,563C 357.219,564.87 358.219,567.037 358.5,569.5C 352.664,564.5 346.664,559.667 340.5,555C 337.626,554.058 334.96,552.891 332.5,551.5 Z" />
        <path fill="#0080ff"
            d="M 322.5,550.5 C 324.801,551.06 327.134,551.56 329.5,552C 334.033,555.078 338.7,557.911 343.5,560.5C 349.173,564.153 354.173,568.486 358.5,573.5C 358.38,574.586 357.713,575.253 356.5,575.5C 353.761,574.425 352.095,572.425 351.5,569.5C 349.323,569.414 347.323,568.747 345.5,567.5C 343.559,568.935 341.892,569.935 340.5,570.5C 343.675,572.132 347.008,573.465 350.5,574.5C 352.927,578.161 354.76,582.161 356,586.5C 358.734,587.362 358.901,588.195 356.5,589C 358.688,592.207 361.688,593.207 365.5,592C 362.695,588.225 360.528,584.058 359,579.5C 358.667,579.833 358.333,580.167 358,580.5C 357.217,578.681 357.717,577.348 359.5,576.5C 360.398,580.4 362.732,583.066 366.5,584.5C 367.083,586.002 367.916,587.335 369,588.5C 368.667,590.5 368.333,592.5 368,594.5C 368.689,593.643 369.522,592.977 370.5,592.5C 373.62,597.446 372.953,601.779 368.5,605.5C 366.073,603.041 363.073,602.041 359.5,602.5C 359.5,601.5 359.5,600.5 359.5,599.5C 354.167,599.5 348.833,599.5 343.5,599.5C 343.5,594.167 343.5,588.833 343.5,583.5C 340.833,583.5 338.167,583.5 335.5,583.5C 335.5,586.167 335.5,588.833 335.5,591.5C 330.167,591.5 324.833,591.5 319.5,591.5C 319.5,588.833 319.5,586.167 319.5,583.5C 324.167,583.5 328.833,583.5 333.5,583.5C 333.187,580.753 333.52,578.086 334.5,575.5C 336.071,576.309 337.738,576.643 339.5,576.5C 339.5,575.167 339.5,573.833 339.5,572.5C 335.5,573.167 333.833,571.5 334.5,567.5C 335.552,567.649 336.552,567.483 337.5,567C 337.167,566.667 336.833,566.333 336.5,566C 338.283,564.933 338.783,563.433 338,561.5C 335.912,560.692 333.912,559.692 332,558.5C 331.439,559.022 330.772,559.355 330,559.5C 328.077,557.788 325.911,556.454 323.5,555.5C 322.548,553.955 322.215,552.288 322.5,550.5 Z" />
        <path fill="#000000"
            d="M 367.5,581.5 C 371.753,583.448 373.42,586.781 372.5,591.5C 369.999,588.643 368.332,585.309 367.5,581.5 Z" />
        <path fill="#000000"
            d="M 241.5,577.5 C 235.411,586.897 230.744,596.897 227.5,607.5C 227.781,603.812 228.281,600.145 229,596.5C 230.908,593.785 232.241,590.785 233,587.5C 235.233,583.55 238.067,580.216 241.5,577.5 Z" />
        <path fill="#000000"
            d="M 227.5,607.5 C 227.334,614.508 227.5,621.508 228,628.5C 228.419,632.392 229.252,636.058 230.5,639.5C 231.551,645.042 233.218,650.376 235.5,655.5C 234.504,655.586 233.671,655.252 233,654.5C 231.667,651.833 230.333,649.167 229,646.5C 226.625,633.406 226.125,620.406 227.5,607.5 Z" />
        <path fill="#000000"
            d="M 372.5,591.5 C 374.708,592.894 376.208,594.894 377,597.5C 379.938,609.977 381.271,622.643 381,635.5C 381.273,637.101 381.773,638.601 382.5,640C 382.167,640.167 381.833,640.333 381.5,640.5C 380.719,639.271 380.219,637.938 380,636.5C 379.34,639.678 378.507,642.678 377.5,645.5C 377.5,640.833 377.5,636.167 377.5,631.5C 379.87,617.78 378.203,604.447 372.5,591.5 Z" />
        <path fill="#0080ff"
            d="M 236.5,656.5 C 239.204,658.049 241.037,660.383 242,663.5C 242.333,663.167 242.667,662.833 243,662.5C 245.272,666.724 247.772,670.724 250.5,674.5C 244.69,669.36 240.023,663.36 236.5,656.5 Z" />
        <path fill="#000000"
            d="M 235.5,655.5 C 236.167,655.5 236.5,655.833 236.5,656.5C 240.023,663.36 244.69,669.36 250.5,674.5C 251.833,676.167 253.167,677.833 254.5,679.5C 253.448,679.649 252.448,679.483 251.5,679C 249,675.833 246.167,673 243,670.5C 242.517,669.552 242.351,668.552 242.5,667.5C 241.5,667.5 240.5,667.5 239.5,667.5C 237.411,663.773 236.078,659.773 235.5,655.5 Z" />
        <path fill="#000000"
            d="M 377.5,631.5 C 377.5,636.167 377.5,640.833 377.5,645.5C 373.634,653.606 369.3,661.44 364.5,669C 363.552,669.483 362.552,669.649 361.5,669.5C 363.907,666.423 365.907,663.09 367.5,659.5C 373.196,651.042 376.529,641.709 377.5,631.5 Z" />
        <path fill="#000000"
            d="M 361.5,669.5 C 360.169,676.165 356.169,680.165 349.5,681.5C 349.5,682.5 349.5,683.5 349.5,684.5C 348.167,684.5 346.833,684.5 345.5,684.5C 350.833,679.5 356.167,674.5 361.5,669.5 Z" />
        <path fill="#0080ff"
            d="M 250.5,674.5 C 251.167,674.5 251.833,674.5 252.5,674.5C 254.519,676.506 256.852,678.172 259.5,679.5C 260.26,681.36 261.26,683.027 262.5,684.5C 259.851,682.86 257.184,681.193 254.5,679.5C 253.167,677.833 251.833,676.167 250.5,674.5 Z" />
        <path fill="#0080ff"
            d="M 281.5,691.5 C 275.094,689.365 268.761,687.031 262.5,684.5C 261.26,683.027 260.26,681.36 259.5,679.5C 256.852,678.172 254.519,676.506 252.5,674.5C 251.763,672.695 250.763,671.029 249.5,669.5C 250.347,668.155 251.513,667.155 253,666.5C 253.17,662.507 253.004,658.507 252.5,654.5C 253.833,654.5 255.167,654.5 256.5,654.5C 256.091,658.848 255.924,663.181 256,667.5C 261.447,668.579 266.614,670.413 271.5,673C 272.423,675.041 272.756,677.208 272.5,679.5C 274.167,679.5 275.833,679.5 277.5,679.5C 277.5,681.833 277.5,684.167 277.5,686.5C 280.833,686.5 284.167,686.5 287.5,686.5C 287.5,684.167 287.5,681.833 287.5,679.5C 292.833,680.167 298.167,680.833 303.5,681.5C 303.5,683.5 303.5,685.5 303.5,687.5C 304.873,687.343 306.207,687.51 307.5,688C 298.799,689.004 290.132,690.171 281.5,691.5 Z" />
        <path fill="#0080ff"
            d="M 367.5,659.5 C 365.907,663.09 363.907,666.423 361.5,669.5C 356.167,674.5 350.833,679.5 345.5,684.5C 343.5,685.167 341.5,685.833 339.5,686.5C 341.917,684.244 344.251,681.744 346.5,679C 350.234,677.712 353.401,675.545 356,672.5C 357.677,668.626 360.177,665.459 363.5,663C 364,661.5 364.5,660 365,658.5C 365.671,659.252 366.504,659.586 367.5,659.5 Z" />
        <path fill="#0080ff"
            d="M 262.5,684.5 C 268.761,687.031 275.094,689.365 281.5,691.5C 283.751,692.015 285.751,693.015 287.5,694.5C 277.957,693.881 269.623,690.548 262.5,684.5 Z" />
        <path fill="#0080ff"
            d="M 332.5,689.5 C 332.167,690.167 331.833,690.833 331.5,691.5C 320.84,695.069 309.84,696.735 298.5,696.5C 294.511,696.884 290.845,696.217 287.5,694.5C 296.839,694.666 306.173,694.5 315.5,694C 321.198,692.327 326.864,690.827 332.5,689.5 Z" />
        <path fill="#000000"
            d="M 331.5,691.5 C 330.71,692.794 329.71,693.961 328.5,695C 323.489,695.585 318.489,696.251 313.5,697C 310.202,697.487 307.202,698.653 304.5,700.5C 302.99,698.311 300.99,696.977 298.5,696.5C 309.84,696.735 320.84,695.069 331.5,691.5 Z" />
    </g>
    <g id="wordmark">
        <path fill="#000000"
            d="M 611.5,456.5 C 591.164,456.333 570.831,456.5 550.5,457C 549.058,457.377 548.058,458.21 547.5,459.5C 546.167,460.5 544.833,461.5 543.5,462.5C 543.393,460.097 544.393,458.264 546.5,457C 549.362,455.701 552.362,454.868 555.5,454.5C 574.32,455.129 592.987,455.796 611.5,456.5 Z" />
        <path fill="#0080ff"
            d="M 611.5,456.5 C 612.609,456.557 613.609,456.89 614.5,457.5C 616.252,459.246 617.585,461.246 618.5,463.5C 615.881,462.355 613.881,460.521 612.5,458C 593.5,457.333 574.5,457.333 555.5,458C 552.937,459.079 550.271,459.579 547.5,459.5C 548.058,458.21 549.058,457.377 550.5,457C 570.831,456.5 591.164,456.333 611.5,456.5 Z" />
        <path fill="#0080ff"
            d="M 618.5,463.5 C 619.495,474.654 619.828,485.988 619.5,497.5C 619.167,497.5 618.833,497.5 618.5,497.5C 617.448,495.744 615.781,495.077 613.5,495.5C 613.197,487.111 613.53,478.778 614.5,470.5C 613.787,468.224 613.287,465.891 613,463.5C 610.162,461.501 606.995,460.168 603.5,459.5C 587.838,458.229 572.171,458.229 556.5,459.5C 555.975,460.192 555.308,460.692 554.5,461C 557.854,464.45 561.854,464.95 566.5,462.5C 578.1,462.892 589.433,463.226 600.5,463.5C 601.869,461.876 603.536,461.376 605.5,462C 604.833,462.667 604.167,463.333 603.5,464C 604.825,473.377 605.991,473.544 607,464.5C 607.741,463.359 608.575,463.359 609.5,464.5C 610.665,472.145 610.831,479.812 610,487.5C 609.07,485.034 608.237,485.201 607.5,488C 608.01,489.826 608.844,489.993 610,488.5C 610.667,489.833 610.667,491.167 610,492.5C 609.333,493.833 608.667,493.833 608,492.5C 607.667,493.833 607.333,495.167 607,496.5C 604.619,495.565 602.119,495.232 599.5,495.5C 599.5,494.5 599.5,493.5 599.5,492.5C 594.167,492.5 588.833,492.5 583.5,492.5C 583.5,491.5 583.5,490.5 583.5,489.5C 578.167,489.5 572.833,489.5 567.5,489.5C 567.5,490.5 567.5,491.5 567.5,492.5C 564.833,492.5 562.167,492.5 559.5,492.5C 559.5,488.5 559.5,484.5 559.5,480.5C 557.5,480.167 555.5,479.833 553.5,479.5C 553.5,484.5 553.5,489.5 553.5,494.5C 555.527,494.338 557.527,494.505 559.5,495C 554.588,495.222 549.921,496.055 545.5,497.5C 544.833,497.5 544.167,497.5 543.5,497.5C 543.5,486.167 543.5,474.833 543.5,463.5C 543.5,463.167 543.5,462.833 543.5,462.5C 544.833,461.5 546.167,460.5 547.5,459.5C 550.271,459.579 552.937,459.079 555.5,458C 574.5,457.333 593.5,457.333 612.5,458C 613.881,460.521 615.881,462.355 618.5,463.5 Z" />
        <path fill="#0080ff"
            d="M 618.5,497.5 C 617.5,497.5 616.5,497.5 615.5,497.5C 592.167,497.5 568.833,497.5 545.5,497.5C 549.921,496.055 554.588,495.222 559.5,495C 557.527,494.505 555.527,494.338 553.5,494.5C 553.5,489.5 553.5,484.5 553.5,479.5C 555.5,479.833 557.5,480.167 559.5,480.5C 559.5,484.5 559.5,488.5 559.5,492.5C 562.167,492.5 564.833,492.5 567.5,492.5C 567.5,491.5 567.5,490.5 567.5,489.5C 572.833,489.5 578.167,489.5 583.5,489.5C 583.5,490.5 583.5,491.5 583.5,492.5C 588.833,492.5 594.167,492.5 599.5,492.5C 599.5,493.5 599.5,494.5 599.5,495.5C 602.119,495.232 604.619,495.565 607,496.5C 607.333,495.167 607.667,493.833 608,492.5C 608.667,493.833 609.333,493.833 610,492.5C 610.667,491.167 610.667,489.833 610,488.5C 608.844,489.993 608.01,489.826 607.5,488C 608.237,485.201 609.07,485.034 610,487.5C 610.831,479.812 610.665,472.145 609.5,464.5C 608.575,463.359 607.741,463.359 607,464.5C 605.991,473.544 604.825,473.377 603.5,464C 604.167,463.333 604.833,462.667 605.5,462C 603.536,461.376 601.869,461.876 600.5,463.5C 589.433,463.226 578.1,462.892 566.5,462.5C 561.854,464.95 557.854,464.45 554.5,461C 555.308,460.692 555.975,460.192 556.5,459.5C 572.171,458.229 587.838,458.229 603.5,459.5C 606.995,460.168 610.162,461.501 613,463.5C 613.287,465.891 613.787,468.224 614.5,470.5C 613.53,478.778 613.197,487.111 613.5,495.5C 615.781,495.077 617.448,495.744 618.5,497.5 Z" />
        <path fill="#0080ff"
            d="M 703.5,502.5 C 706.086,503.415 708.086,505.082 709.5,507.5C 709.5,518.5 709.5,529.5 709.5,540.5C 709.167,540.5 708.833,540.5 708.5,540.5C 708.666,531.161 708.5,521.827 708,512.5C 707.727,510.671 706.893,509.171 705.5,508C 705.833,507.667 706.167,507.333 706.5,507C 705.167,506 703.833,505 702.5,504C 686.868,504.872 671.201,505.372 655.5,505.5C 655.5,506.5 655.5,507.5 655.5,508.5C 671.217,507.059 686.884,507.559 702.5,510C 703.333,510.833 704.167,511.667 705,512.5C 705.744,521.202 705.578,529.868 704.5,538.5C 683.148,537.406 662.648,537.406 643,538.5C 641.11,538.215 639.777,537.215 639,535.5C 638.648,537.247 638.148,538.914 637.5,540.5C 637.5,548.833 637.5,557.167 637.5,565.5C 637.5,622.167 637.5,678.833 637.5,735.5C 636.334,660.334 636.168,585.001 637,509.5C 637.791,508.255 638.291,506.922 638.5,505.5C 640.138,504.343 641.804,503.176 643.5,502C 663.671,501.171 683.671,501.338 703.5,502.5 Z" />
        <path fill="#0080ff"
            d="M 967.5,508.5 C 969.415,508.216 971.081,508.549 972.5,509.5C 967.887,509.482 963.887,510.982 960.5,514C 954.865,514.904 949.198,515.404 943.5,515.5C 951.235,512.619 959.235,510.285 967.5,508.5 Z" />
        <path fill="#000000"
            d="M 988.5,548.5 C 988.073,544.491 986.739,540.824 984.5,537.5C 983.526,530.073 982.026,522.739 980,515.5C 979.392,513.934 978.558,512.6 977.5,511.5C 976.18,510.058 974.514,509.392 972.5,509.5C 971.081,508.549 969.415,508.216 967.5,508.5C 970.509,507.717 973.676,507.05 977,506.5C 979.64,508.928 982.306,510.595 985,511.5C 984.005,519.229 984.505,526.896 986.5,534.5C 987.086,534.709 987.586,535.043 988,535.5C 988.499,539.821 988.666,544.154 988.5,548.5 Z" />
        <path fill="#0040bb"
            d="M 615.5,497.5 C 616.5,497.5 617.5,497.5 618.5,497.5C 618.833,497.5 619.167,497.5 619.5,497.5C 619.5,506.167 619.5,514.833 619.5,523.5C 619.167,523.5 618.833,523.5 618.5,523.5C 618.179,521.952 617.179,521.285 615.5,521.5C 615.5,513.5 615.5,505.5 615.5,497.5 Z" />
        <path fill="#0040bb"
            d="M 543.5,497.5 C 544.167,497.5 544.833,497.5 545.5,497.5C 568.833,497.5 592.167,497.5 615.5,497.5C 615.5,505.5 615.5,513.5 615.5,521.5C 591.833,521.5 568.167,521.5 544.5,521.5C 544.167,521.5 543.833,521.5 543.5,521.5C 543.5,513.5 543.5,505.5 543.5,497.5 Z" />
        <path fill="#0040bb"
            d="M 545.5,498.5 C 546.222,498.918 546.722,499.584 547,500.5C 547.333,499.833 547.667,499.167 548,498.5C 548.368,499.91 549.201,500.91 550.5,501.5C 570.937,500.725 591.937,500.391 613.5,500.5C 613.241,504.24 613.574,507.906 614.5,511.5C 612.266,512.738 611.932,514.404 613.5,516.5C 613.281,517.938 612.781,519.271 612,520.5C 611.333,519.167 610.667,519.167 610,520.5C 610.021,514.849 608.855,514.349 606.5,519C 601.833,519.667 597.167,519.667 592.5,519C 591.726,516.595 591.226,514.095 591,511.5C 586.333,512.833 581.667,512.833 577,511.5C 574.604,513.741 573.104,516.407 572.5,519.5C 568.486,519.666 564.486,519.499 560.5,519C 559.718,516.26 559.218,513.426 559,510.5C 556.619,509.565 554.119,509.232 551.5,509.5C 551.657,508.127 551.49,506.793 551,505.5C 550.374,507.991 549.541,507.991 548.5,505.5C 547.147,506.685 545.98,508.019 545,509.5C 544.322,505.779 544.489,502.112 545.5,498.5 Z" />
        <path fill="#F2F2F2"
            d="M 843.5,461.5 C 862.836,461.333 882.17,461.5 901.5,462C 904.937,463.105 907.437,465.272 909,468.5C 909.667,557.5 909.667,646.5 909,735.5C 908.214,738.583 906.381,740.749 903.5,742C 882.5,742.667 861.5,742.667 840.5,742C 837.619,740.749 835.786,738.583 835,735.5C 834.333,646.833 834.333,558.167 835,469.5C 836.73,465.57 839.564,462.903 843.5,461.5 Z" />
        <path fill="#d3d3d3"
            d="M 838.5,497.5 C 861.5,497.5 884.5,497.5 907.5,497.5C 907.5,505.5 907.5,513.5 907.5,521.5C 883.833,521.5 860.167,521.5 836.5,521.5C 835.915,513.228 836.582,505.228 838.5,497.5 Z" />
        <path fill="#0080ff"
            d="M 972.5,509.5 C 974.514,509.392 976.18,510.058 977.5,511.5C 979.156,519.801 980.99,528.134 983,536.5C 983.383,537.056 983.883,537.389 984.5,537.5C 984.634,539.292 984.301,540.958 983.5,542.5C 964.212,547.027 944.878,551.694 925.5,556.5C 925.167,554.5 924.833,552.5 924.5,550.5C 923.423,543.547 921.756,536.714 919.5,530C 920.615,526.99 922.281,524.324 924.5,522C 930.997,520.893 936.997,518.726 942.5,515.5C 942.833,515.5 943.167,515.5 943.5,515.5C 949.198,515.404 954.865,514.904 960.5,514C 963.887,510.982 967.887,509.482 972.5,509.5 Z" />
        <path fill="#0080ff"
            d="M 977.5,511.5 C 978.558,512.6 979.392,513.934 980,515.5C 982.026,522.739 983.526,530.073 984.5,537.5C 983.883,537.389 983.383,537.056 983,536.5C 980.99,528.134 979.156,519.801 977.5,511.5 Z" />
        <path fill="#0080ff"
            d="M 544.5,521.5 C 568.167,521.5 591.833,521.5 615.5,521.5C 617.179,521.285 618.179,521.952 618.5,523.5C 617.84,541 617.173,558.5 616.5,576C 617.14,629.184 617.474,682.351 617.5,735.5C 615.519,736.348 613.519,736.848 611.5,737C 610.448,732.402 610.448,727.735 611.5,723C 610.621,657.113 609.954,591.28 609.5,525.5C 596.876,524.755 584.209,524.755 571.5,525.5C 567.243,525.115 563.076,524.449 559,523.5C 558.097,524.701 556.931,525.535 555.5,526C 558.167,526.667 558.167,527.333 555.5,528C 556.059,528.725 556.392,529.558 556.5,530.5C 555.43,532.879 554.763,535.379 554.5,538C 557.085,549.18 557.085,560.346 554.5,571.5C 556.489,583.088 556.989,594.755 556,606.5C 553.959,607.423 551.792,607.756 549.5,607.5C 549.329,596.854 548.829,596.854 548,607.5C 547.059,598.482 547.559,589.649 549.5,581C 549.039,573.592 548.372,566.259 547.5,559C 548.126,558.25 548.626,557.416 549,556.5C 549.448,546.129 549.615,535.962 549.5,526C 547.638,524.634 545.972,523.134 544.5,521.5 Z" />
        <path fill="#0080ff"
            d="M 708.5,540.5 C 685.167,540.5 661.833,540.5 638.5,540.5C 638.167,540.5 637.833,540.5 637.5,540.5C 638.148,538.914 638.648,537.247 639,535.5C 639.777,537.215 641.11,538.215 643,538.5C 662.648,537.406 683.148,537.406 704.5,538.5C 705.578,529.868 705.744,521.202 705,512.5C 704.167,511.667 703.333,510.833 702.5,510C 686.884,507.559 671.217,507.059 655.5,508.5C 655.5,507.5 655.5,506.5 655.5,505.5C 671.201,505.372 686.868,504.872 702.5,504C 703.833,505 705.167,506 706.5,507C 706.167,507.333 705.833,507.667 705.5,508C 706.893,509.171 707.727,510.671 708,512.5C 708.5,521.827 708.666,531.161 708.5,540.5 Z" />
        <path fill="#0080ff"
            d="M 942.5,515.5 C 936.997,518.726 930.997,520.893 924.5,522C 922.281,524.324 920.615,526.99 919.5,530C 921.756,536.714 923.423,543.547 924.5,550.5C 923.313,548.928 922.313,547.261 921.5,545.5C 920.388,540.155 919.055,534.822 917.5,529.5C 919.604,524.228 923.27,520.395 928.5,518C 933.256,517.443 937.923,516.61 942.5,515.5 Z" />
        <path fill="#0040bb"
            d="M 637.5,540.5 C 637.833,540.5 638.167,540.5 638.5,540.5C 638.334,546.842 638.5,553.175 639,559.5C 639.241,556.711 639.908,554.044 641,551.5C 643.454,552.397 646.287,553.063 649.5,553.5C 649.5,555.5 649.5,557.5 649.5,559.5C 653.449,559.693 653.449,560.193 649.5,561C 656.483,563.928 663.483,564.095 670.5,561.5C 674.239,563.96 678.072,563.96 682,561.5C 685.104,561.851 684.937,562.351 681.5,563C 686.056,563.846 690.389,563.346 694.5,561.5C 696.246,561.971 697.913,562.638 699.5,563.5C 701.674,561.56 704.007,561.226 706.5,562.5C 707.086,562.291 707.586,561.957 708,561.5C 708.5,554.508 708.666,547.508 708.5,540.5C 708.833,540.5 709.167,540.5 709.5,540.5C 709.5,548.833 709.5,557.167 709.5,565.5C 709.167,565.5 708.833,565.5 708.5,565.5C 688.833,565.5 669.167,565.5 649.5,565.5C 645.5,565.5 641.5,565.5 637.5,565.5C 637.5,557.167 637.5,548.833 637.5,540.5 Z" />
        <path fill="#0040bb"
            d="M 638.5,540.5 C 661.833,540.5 685.167,540.5 708.5,540.5C 708.666,547.508 708.5,554.508 708,561.5C 707.586,561.957 707.086,562.291 706.5,562.5C 704.007,561.226 701.674,561.56 699.5,563.5C 697.913,562.638 696.246,561.971 694.5,561.5C 690.389,563.346 686.056,563.846 681.5,563C 684.937,562.351 685.104,561.851 682,561.5C 678.072,563.96 674.239,563.96 670.5,561.5C 663.483,564.095 656.483,563.928 649.5,561C 653.449,560.193 653.449,559.693 649.5,559.5C 649.5,557.5 649.5,555.5 649.5,553.5C 646.287,553.063 643.454,552.397 641,551.5C 639.908,554.044 639.241,556.711 639,559.5C 638.5,553.175 638.334,546.842 638.5,540.5 Z" />
        <path fill="#000000"
            d="M 921.5,545.5 C 922.313,547.261 923.313,548.928 924.5,550.5C 924.833,552.5 925.167,554.5 925.5,556.5C 926.449,558.737 927.116,561.071 927.5,563.5C 926.21,562.942 925.377,561.942 925,560.5C 924.809,558.292 924.309,556.292 923.5,554.5C 921.877,551.785 921.21,548.785 921.5,545.5 Z" />
        <path fill="#0040bb"
            d="M 983.5,542.5 C 985.511,543.417 986.511,545.083 986.5,547.5C 987.102,551.677 987.769,555.843 988.5,560C 988.167,561.167 987.833,562.333 987.5,563.5C 986.117,560.924 985.283,561.258 985,564.5C 982.103,565.097 979.436,565.097 977,564.5C 975.961,565.244 975.461,566.244 975.5,567.5C 962.129,571.764 948.463,575.598 934.5,579C 933.027,579.71 932.36,580.876 932.5,582.5C 931.675,578.353 931.175,574.019 931,569.5C 930.303,567.416 929.136,565.749 927.5,564.5C 927.5,564.167 927.5,563.833 927.5,563.5C 927.116,561.071 926.449,558.737 925.5,556.5C 944.878,551.694 964.212,547.027 983.5,542.5 Z" />
        <path fill="#0040bb"
            d="M 984.5,537.5 C 986.739,540.824 988.073,544.491 988.5,548.5C 989.676,554.203 991.009,559.87 992.5,565.5C 991.423,564.982 990.256,564.648 989,564.5C 984.601,566.024 980.101,567.024 975.5,567.5C 975.461,566.244 975.961,565.244 977,564.5C 979.436,565.097 982.103,565.097 985,564.5C 985.283,561.258 986.117,560.924 987.5,563.5C 987.833,562.333 988.167,561.167 988.5,560C 987.769,555.843 987.102,551.677 986.5,547.5C 986.511,545.083 985.511,543.417 983.5,542.5C 984.301,540.958 984.634,539.292 984.5,537.5 Z" />
        <path fill="#0080ff"
            d="M 637.5,565.5 C 641.5,565.5 645.5,565.5 649.5,565.5C 649.721,566.735 650.388,567.735 651.5,568.5C 649.829,570.51 649.162,572.843 649.5,575.5C 654.167,575.5 658.833,575.5 663.5,575.5C 663.5,578.167 663.5,580.833 663.5,583.5C 660.833,583.5 658.167,583.5 655.5,583.5C 655.5,586.167 655.5,588.833 655.5,591.5C 670.5,591.5 685.5,591.5 700.5,591.5C 701.675,583.46 703.175,575.46 705,567.5C 705.167,574.167 705.333,580.833 705.5,587.5C 704.954,625.756 704.954,664.09 705.5,702.5C 705.436,714.284 704.769,725.951 703.5,737.5C 696.159,737.334 688.826,737.5 681.5,738C 688.185,738.623 694.852,739.456 701.5,740.5C 681.497,740.667 661.497,740.5 641.5,740C 640.62,738.644 640.286,737.144 640.5,735.5C 639.5,735.5 638.5,735.5 637.5,735.5C 637.5,678.833 637.5,622.167 637.5,565.5 Z" />
        <path fill="#0080ff"
            d="M 649.5,565.5 C 669.167,565.5 688.833,565.5 708.5,565.5C 708.667,622.168 708.5,678.834 708,735.5C 706.482,738.009 704.315,739.676 701.5,740.5C 694.852,739.456 688.185,738.623 681.5,738C 688.826,737.5 696.159,737.334 703.5,737.5C 704.769,725.951 705.436,714.284 705.5,702.5C 704.954,664.09 704.954,625.756 705.5,587.5C 705.333,580.833 705.167,574.167 705,567.5C 703.175,575.46 701.675,583.46 700.5,591.5C 685.5,591.5 670.5,591.5 655.5,591.5C 655.5,588.833 655.5,586.167 655.5,583.5C 658.167,583.5 660.833,583.5 663.5,583.5C 663.5,580.833 663.5,578.167 663.5,575.5C 658.833,575.5 654.167,575.5 649.5,575.5C 649.162,572.843 649.829,570.51 651.5,568.5C 650.388,567.735 649.721,566.735 649.5,565.5 Z" />
        <path fill="#d3d3d3"
            d="M 810.5,566.5 C 810.5,574.5 810.5,582.5 810.5,590.5C 785.833,590.5 761.167,590.5 736.5,590.5C 736.5,582.5 736.5,574.5 736.5,566.5C 761.167,566.5 785.833,566.5 810.5,566.5 Z" />
        <path fill="#0040bb"
            d="M 927.5,564.5 C 929.136,565.749 930.303,567.416 931,569.5C 931.175,574.019 931.675,578.353 932.5,582.5C 933.15,584.435 933.483,586.435 933.5,588.5C 932.768,587.192 931.934,585.858 931,584.5C 930.583,577.663 929.416,570.996 927.5,564.5 Z" />
        <path fill="#0080ff"
            d="M 992.5,565.5 C 997.849,586.602 1003.52,607.602 1009.5,628.5C 1014.32,648.122 1018.99,667.789 1023.5,687.5C 1022.96,691.544 1023.79,695.211 1026,698.5C 1026.96,703.123 1027.62,707.79 1028,712.5C 1029.98,714.17 1030.81,716.336 1030.5,719C 1030.65,722.159 1029.82,724.992 1028,727.5C 1025.42,728.269 1023.25,729.602 1021.5,731.5C 1016.84,733.162 1012.17,734.495 1007.5,735.5C 1003.83,736.167 1000.17,736.833 996.5,737.5C 989.818,738.633 983.152,739.633 976.5,740.5C 974.273,739.599 973.273,737.933 973.5,735.5C 973.692,730.87 973.025,726.37 971.5,722C 973.81,719.246 973.976,716.413 972,713.5C 971.798,715.256 971.298,716.922 970.5,718.5C 969.833,713.5 969.167,708.5 968.5,703.5C 967.914,703.709 967.414,704.043 967,704.5C 965.281,698.489 963.115,692.822 960.5,687.5C 959.833,686.167 959.167,684.833 958.5,683.5C 958.245,679.2 957.245,675.2 955.5,671.5C 954.785,665.896 953.451,660.562 951.5,655.5C 948.831,646.652 946.664,637.652 945,628.5C 944.626,626.509 943.793,624.842 942.5,623.5C 940.108,611.661 937.108,599.995 933.5,588.5C 933.483,586.435 933.15,584.435 932.5,582.5C 932.36,580.876 933.027,579.71 934.5,579C 948.463,575.598 962.129,571.764 975.5,567.5C 980.101,567.024 984.601,566.024 989,564.5C 990.256,564.648 991.423,564.982 992.5,565.5 Z" />
        <path fill="#0080ff"
            d="M 543.5,521.5 C 543.833,521.5 544.167,521.5 544.5,521.5C 545.972,523.134 547.638,524.634 549.5,526C 549.615,535.962 549.448,546.129 549,556.5C 548.626,557.416 548.126,558.25 547.5,559C 548.372,566.259 549.039,573.592 549.5,581C 547.559,589.649 547.059,598.482 548,607.5C 548.829,596.854 549.329,596.854 549.5,607.5C 551.792,607.756 553.959,607.423 556,606.5C 556.989,594.755 556.489,583.088 554.5,571.5C 557.085,560.346 557.085,549.18 554.5,538C 554.763,535.379 555.43,532.879 556.5,530.5C 556.392,529.558 556.059,528.725 555.5,528C 558.167,527.333 558.167,526.667 555.5,526C 556.931,525.535 558.097,524.701 559,523.5C 563.076,524.449 567.243,525.115 571.5,525.5C 584.209,524.755 596.876,524.755 609.5,525.5C 609.954,591.28 610.621,657.113 611.5,723C 610.448,727.735 610.448,732.402 611.5,737C 613.519,736.848 615.519,736.348 617.5,735.5C 616.229,737.934 614.229,739.434 611.5,740C 590.492,740.833 569.492,740.666 548.5,739.5C 547.717,737.712 546.384,736.712 544.5,736.5C 543.503,664.904 543.17,593.238 543.5,521.5 Z" />
        <path fill="#000000"
            d="M 614.5,457.5 C 616.426,458.242 618.259,459.242 620,460.5C 620.667,552.833 620.667,645.167 620,737.5C 619.617,738.056 619.117,738.389 618.5,738.5C 618.5,737.5 618.5,736.5 618.5,735.5C 619.499,665.002 619.833,594.335 619.5,523.5C 619.5,514.833 619.5,506.167 619.5,497.5C 619.828,485.988 619.495,474.654 618.5,463.5C 617.585,461.246 616.252,459.246 614.5,457.5 Z" />
        <path fill="#000000"
            d="M 638.5,505.5 C 638.291,506.922 637.791,508.255 637,509.5C 636.168,585.001 636.334,660.334 637.5,735.5C 637.948,738.233 639.281,740.399 641.5,742C 662.497,742.5 683.497,742.667 704.5,742.5C 682.337,743.663 660.004,743.83 637.5,743C 636.874,742.25 636.374,741.416 636,740.5C 635.5,662.167 635.333,583.834 635.5,505.5C 636.5,505.5 637.5,505.5 638.5,505.5 Z" />
        <path fill="#F2F2F2"
            d="M 810.5,566.5 C 785.833,566.5 761.167,566.5 736.5,566.5C 736.5,574.5 736.5,582.5 736.5,590.5C 761.167,590.5 785.833,590.5 810.5,590.5C 810.667,639.168 810.5,687.834 810,736.5C 809.027,738.64 807.527,740.307 805.5,741.5C 783.841,742.666 762.174,742.833 740.5,742C 738.714,741.215 737.214,740.049 736,738.5C 734.843,704.226 734.343,669.892 734.5,635.5C 734.667,602.167 734.833,568.833 735,535.5C 736.122,533.376 737.622,531.543 739.5,530C 761.103,528.367 782.769,528.033 804.5,529C 807.381,530.251 809.214,532.417 810,535.5C 810.5,545.828 810.666,556.161 810.5,566.5 Z" />
        <path fill="#000000"
            d="M 923.5,554.5 C 924.309,556.292 924.809,558.292 925,560.5C 925.377,561.942 926.21,562.942 927.5,563.5C 927.5,563.833 927.5,564.167 927.5,564.5C 929.416,570.996 930.583,577.663 931,584.5C 931.934,585.858 932.768,587.192 933.5,588.5C 937.108,599.995 940.108,611.661 942.5,623.5C 941.25,623.423 940.417,622.756 940,621.5C 938.984,622.634 938.317,622.301 938,620.5C 937.667,615.833 937.333,611.167 937,606.5C 936.529,604.754 935.862,603.087 935,601.5C 934.009,602.43 933.509,603.596 933.5,605C 934.567,607.869 934.567,610.703 933.5,613.5C 932.791,610.871 931.791,608.371 930.5,606C 931.691,603.389 931.024,601.556 928.5,600.5C 927.345,597.554 927.179,594.554 928,591.5C 929.216,593.962 929.882,596.629 930,599.5C 930.414,599.957 930.914,600.291 931.5,600.5C 932.657,597.216 932.824,593.882 932,590.5C 930.218,582.014 928.218,573.68 926,565.5C 925.333,564.833 924.667,564.167 924,563.5C 923,564.833 922,564.833 921,563.5C 920.51,562.207 920.343,560.873 920.5,559.5C 921.5,559.5 922.5,559.5 923.5,559.5C 923.5,557.833 923.5,556.167 923.5,554.5 Z" />
        <path fill="#0080ff"
            d="M 614.5,542.5 C 615.665,590.998 615.832,639.665 615,688.5C 613.861,684.342 613.361,680.009 613.5,675.5C 613.362,631.145 613.695,586.812 614.5,542.5 Z" />
        <path fill="#0080ff"
            d="M 618.5,523.5 C 618.833,523.5 619.167,523.5 619.5,523.5C 619.833,594.335 619.499,665.002 618.5,735.5C 618.167,735.5 617.833,735.5 617.5,735.5C 617.474,682.351 617.14,629.184 616.5,576C 617.173,558.5 617.84,541 618.5,523.5 Z" />
        <path fill="#000000"
            d="M 1024.5,687.5 C 1024.17,687.5 1023.83,687.5 1023.5,687.5C 1018.99,667.789 1014.32,648.122 1009.5,628.5C 1011.07,629.681 1011.9,631.347 1012,633.5C 1013.6,630.753 1014.44,627.753 1014.5,624.5C 1015.5,624.5 1016.5,624.5 1017.5,624.5C 1017.33,629.511 1017.5,634.511 1018,639.5C 1020.39,644.516 1021.56,649.85 1021.5,655.5C 1020.5,655.5 1019.5,655.5 1018.5,655.5C 1021.31,665.993 1023.31,676.66 1024.5,687.5 Z" />
        <path fill="#0040bb"
            d="M 709.5,507.5 C 710.666,583.999 710.832,660.666 710,737.5C 709.617,738.056 709.117,738.389 708.5,738.5C 709.492,680.875 709.825,623.208 709.5,565.5C 709.5,557.167 709.5,548.833 709.5,540.5C 709.5,529.5 709.5,518.5 709.5,507.5 Z" />
        <path fill="#000000"
            d="M 942.5,623.5 C 943.793,624.842 944.626,626.509 945,628.5C 946.664,637.652 948.831,646.652 951.5,655.5C 950.504,655.586 949.671,655.252 949,654.5C 947.801,649.735 946.301,645.069 944.5,640.5C 945.782,637.273 945.282,634.273 943,631.5C 942.503,628.854 942.336,626.187 942.5,623.5 Z" />
        <path fill="#0080ff"
            d="M 708.5,565.5 C 708.833,565.5 709.167,565.5 709.5,565.5C 709.825,623.208 709.492,680.875 708.5,738.5C 707.473,740.194 706.139,741.527 704.5,742.5C 683.497,742.667 662.497,742.5 641.5,742C 639.281,740.399 637.948,738.233 637.5,735.5C 638.5,735.5 639.5,735.5 640.5,735.5C 640.286,737.144 640.62,738.644 641.5,740C 661.497,740.5 681.497,740.667 701.5,740.5C 704.315,739.676 706.482,738.009 708,735.5C 708.5,678.834 708.667,622.168 708.5,565.5 Z" />
        <path fill="#000c29"
            d="M 703.5,502.5 C 706.565,502.241 709.065,503.241 711,505.5C 711.667,583.167 711.667,660.833 711,738.5C 709.429,740.923 707.263,742.256 704.5,742.5C 706.139,741.527 707.473,740.194 708.5,738.5C 709.117,738.389 709.617,738.056 710,737.5C 710.832,660.666 710.666,583.999 709.5,507.5C 708.086,505.082 706.086,503.415 703.5,502.5 Z" />
        <path fill="#000000"
            d="M 951.5,655.5 C 953.451,660.562 954.785,665.896 955.5,671.5C 954.883,671.389 954.383,671.056 954,670.5C 952.84,665.547 952.007,660.547 951.5,655.5 Z" />
        <path fill="#000000"
            d="M 958.5,683.5 C 959.167,684.833 959.833,686.167 960.5,687.5C 961.374,690.789 962.041,694.123 962.5,697.5C 960.047,693.231 958.714,688.564 958.5,683.5 Z" />
        <path fill="#0080ff"
            d="M 960.5,687.5 C 963.115,692.822 965.281,698.489 967,704.5C 967.414,704.043 967.914,703.709 968.5,703.5C 969.167,708.5 969.833,713.5 970.5,718.5C 971.298,716.922 971.798,715.256 972,713.5C 973.976,716.413 973.81,719.246 971.5,722C 973.025,726.37 973.692,730.87 973.5,735.5C 969.52,722.914 965.854,710.247 962.5,697.5C 962.041,694.123 961.374,690.789 960.5,687.5 Z" />
        <path fill="#000000"
            d="M 1024.5,687.5 C 1025.5,687.5 1026.5,687.5 1027.5,687.5C 1028.12,692.856 1029.45,698.023 1031.5,703C 1030.33,706.11 1030.83,706.277 1033,703.5C 1033.25,709.863 1033.75,716.196 1034.5,722.5C 1033.9,726.932 1031.57,730.099 1027.5,732C 1020.94,733.912 1014.27,735.078 1007.5,735.5C 1012.17,734.495 1016.84,733.162 1021.5,731.5C 1027.73,730.939 1031.39,727.605 1032.5,721.5C 1030.03,710.101 1027.37,698.768 1024.5,687.5 Z" />
        <path fill="#0080ff"
            d="M 1023.5,687.5 C 1023.83,687.5 1024.17,687.5 1024.5,687.5C 1027.37,698.768 1030.03,710.101 1032.5,721.5C 1031.39,727.605 1027.73,730.939 1021.5,731.5C 1023.25,729.602 1025.42,728.269 1028,727.5C 1029.82,724.992 1030.65,722.159 1030.5,719C 1030.81,716.336 1029.98,714.17 1028,712.5C 1027.62,707.79 1026.96,703.123 1026,698.5C 1023.79,695.211 1022.96,691.544 1023.5,687.5 Z" />
        <path fill="#000000"
            d="M 962.5,697.5 C 965.854,710.247 969.52,722.914 973.5,735.5C 973.273,737.933 974.273,739.599 976.5,740.5C 983.482,742.073 990.149,741.073 996.5,737.5C 1000.17,736.833 1003.83,736.167 1007.5,735.5C 1007.5,736.5 1007.5,737.5 1007.5,738.5C 1003.09,738.853 998.754,739.686 994.5,741C 998.943,742.94 1003.61,743.94 1008.5,744C 1008.17,744.333 1007.83,744.667 1007.5,745C 1003.51,745.273 999.676,745.439 996,745.5C 988.495,742.247 980.662,741.581 972.5,743.5C 972.663,741.143 972.497,738.81 972,736.5C 971.311,735.643 970.478,734.977 969.5,734.5C 968.109,735.645 966.776,735.645 965.5,734.5C 966.719,731.456 967.386,728.289 967.5,725C 964.886,716.091 963.22,706.924 962.5,697.5 Z" />
        <path fill="#0080ff"
            d="M 996.5,737.5 C 990.149,741.073 983.482,742.073 976.5,740.5C 983.152,739.633 989.818,738.633 996.5,737.5 Z" />
        <path fill="#0080ff"
            d="M 617.5,735.5 C 617.833,735.5 618.167,735.5 618.5,735.5C 618.5,736.5 618.5,737.5 618.5,738.5C 616.99,739.836 615.323,741.003 613.5,742C 591.833,742.667 570.167,742.667 548.5,742C 546.536,740.549 545.203,738.716 544.5,736.5C 546.384,736.712 547.717,737.712 548.5,739.5C 569.492,740.666 590.492,740.833 611.5,740C 614.229,739.434 616.229,737.934 617.5,735.5 Z" />
        <path fill="#000000"
            d="M 543.5,463.5 C 543.5,474.833 543.5,486.167 543.5,497.5C 543.5,505.5 543.5,513.5 543.5,521.5C 543.17,593.238 543.503,664.904 544.5,736.5C 545.203,738.716 546.536,740.549 548.5,742C 570.167,742.667 591.833,742.667 613.5,742C 615.323,741.003 616.99,739.836 618.5,738.5C 618.762,739.978 618.429,741.311 617.5,742.5C 615.283,743.572 612.95,744.239 610.5,744.5C 590.184,743.368 569.851,743.202 549.5,744C 551.598,746.038 553.931,747.538 556.5,748.5C 552.167,748.5 547.833,748.5 543.5,748.5C 545.626,747.874 547.293,746.541 548.5,744.5C 548,743.119 547,742.453 545.5,742.5C 543.714,743.454 542.047,744.287 540.5,745C 540.19,743.126 540.69,741.293 542,739.5C 542.167,647.332 542.667,555.332 543.5,463.5 Z" />
    </g>
    <g id="logo-base">
        <path fill="#F2F2F2"
            d="M 543.5,748.5 C 547.833,748.5 552.167,748.5 556.5,748.5C 720.834,748.333 885.167,748.5 1049.5,749C 1059.4,753.204 1061.9,760.037 1057,769.5C 1055.04,772.135 1052.54,773.969 1049.5,775C 868.833,775.667 688.167,775.667 507.5,775C 499.265,771.403 496.431,765.237 499,756.5C 500.892,752.942 503.725,750.442 507.5,749C 519.495,748.5 531.495,748.333 543.5,748.5 Z" />
        <path fill="#F2F2F2"
            d="M 1001.5,782.5 C 1002.66,791.324 1002.82,800.324 1002,809.5C 1001.5,810 1001,810.5 1000.5,811C 996.5,811.167 992.5,811.333 988.5,811.5C 984.107,811.491 980.107,810.824 976.5,809.5C 976.5,800.5 976.5,791.5 976.5,782.5C 984.833,782.5 993.167,782.5 1001.5,782.5 Z" />
        <path fill="#F2F2F2"
            d="M 555.5,781.5 C 564.167,781.5 572.833,781.5 581.5,781.5C 581.666,790.839 581.5,800.173 581,809.5C 580.5,810 580,810.5 579.5,811C 571.587,811.814 563.754,811.647 556,810.5C 555.5,800.839 555.334,791.172 555.5,781.5 Z" />
        <path fill="#F2F2F2"
            d="M 1001.5,782.5 C 993.167,782.5 984.833,782.5 976.5,782.5C 976.5,791.5 976.5,800.5 976.5,809.5C 975.506,800.348 975.173,791.015 975.5,781.5C 984.349,781.174 993.016,781.507 1001.5,782.5 Z" />
    </g>
</svg>
